<svg width="195" height="98" viewBox="0 0 195 98" fill="none" xmlns="http://www.w3.org/2000/svg">
    <path d="M26.752 81.384C23.3813 81.384 20.2667 80.8293 17.408 79.72C14.5493 78.568 12.0747 76.968 9.984 74.92C7.89333 72.872 6.25067 70.4613 5.056 67.688C3.904 64.9147 3.328 61.8853 3.328 58.6C3.328 55.3147 3.904 52.2853 5.056 49.512C6.25067 46.7387 7.89333 44.328 9.984 42.28C12.1173 40.232 14.6133 38.6533 17.472 37.544C20.3307 36.392 23.4453 35.816 26.816 35.816C30.0587 35.816 33.1093 36.3707 35.968 37.48C38.8267 38.5467 41.2373 40.168 43.2 42.344L40.192 45.352C38.3573 43.4747 36.3307 42.1307 34.112 41.32C31.8933 40.4667 29.504 40.04 26.944 40.04C24.256 40.04 21.76 40.5093 19.456 41.448C17.152 42.344 15.1467 43.6453 13.44 45.352C11.7333 47.016 10.3893 48.9787 9.408 51.24C8.46933 53.4587 8 55.912 8 58.6C8 61.288 8.46933 63.7627 9.408 66.024C10.3893 68.2427 11.7333 70.2053 13.44 71.912C15.1467 73.576 17.152 74.8773 19.456 75.816C21.76 76.712 24.256 77.16 26.944 77.16C29.504 77.16 31.8933 76.7333 34.112 75.88C36.3307 75.0267 38.3573 73.6613 40.192 71.784L43.2 74.792C41.2373 76.968 38.8267 78.6107 35.968 79.72C33.1093 80.8293 30.0373 81.384 26.752 81.384ZM69.488 47.08C72.2187 47.08 74.608 47.6133 76.656 48.68C78.7467 49.704 80.368 51.2827 81.52 53.416C82.7147 55.5493 83.312 58.2373 83.312 61.48V81H78.768V61.928C78.768 58.3867 77.872 55.72 76.08 53.928C74.3307 52.0933 71.856 51.176 68.656 51.176C66.2667 51.176 64.176 51.6667 62.384 52.648C60.6347 53.5867 59.2693 54.9733 58.288 56.808C57.3493 58.6 56.88 60.776 56.88 63.336V81H52.336V33.512H56.88V56.616L55.984 54.888C57.0507 52.456 58.7573 50.5573 61.104 49.192C63.4507 47.784 66.2453 47.08 69.488 47.08ZM116.642 81V73.576L116.45 72.36V59.944C116.45 57.0853 115.639 54.888 114.018 53.352C112.439 51.816 110.071 51.048 106.914 51.048C104.738 51.048 102.669 51.4107 100.706 52.136C98.7433 52.8613 97.0793 53.8213 95.714 55.016L93.666 51.624C95.3727 50.1733 97.4207 49.064 99.81 48.296C102.199 47.4853 104.717 47.08 107.362 47.08C111.714 47.08 115.063 48.168 117.41 50.344C119.799 52.4773 120.994 55.7413 120.994 60.136V81H116.642ZM105.058 81.32C102.541 81.32 100.343 80.9147 98.466 80.104C96.6313 79.2507 95.2233 78.0987 94.242 76.648C93.2607 75.1547 92.77 73.448 92.77 71.528C92.77 69.7787 93.1753 68.2 93.986 66.792C94.8393 65.3413 96.2047 64.1893 98.082 63.336C100.002 62.44 102.562 61.992 105.762 61.992H117.346V65.384H105.89C102.647 65.384 100.386 65.96 99.106 67.112C97.8687 68.264 97.25 69.6933 97.25 71.4C97.25 73.32 97.9967 74.856 99.49 76.008C100.983 77.16 103.074 77.736 105.762 77.736C108.322 77.736 110.519 77.16 112.354 76.008C114.231 74.8133 115.597 73.1067 116.45 70.888L117.474 74.024C116.621 76.2427 115.127 78.0133 112.994 79.336C110.903 80.6587 108.258 81.32 105.058 81.32ZM143.96 81.32C140.803 81.32 138.371 80.4667 136.664 78.76C134.957 77.0533 134.104 74.6427 134.104 71.528V39.976H138.648V71.272C138.648 73.2347 139.139 74.7493 140.12 75.816C141.144 76.8827 142.595 77.416 144.472 77.416C146.477 77.416 148.141 76.84 149.464 75.688L151.064 78.952C150.168 79.7627 149.08 80.36 147.8 80.744C146.563 81.128 145.283 81.32 143.96 81.32ZM128.088 51.176V47.4H148.888V51.176H128.088Z" fill="black"/>
    <g filter="url(#filter0_d_1_791)">
        <path d="M92.4165 37.9304C90.8834 37.8364 89.4278 37.5228 88.0499 36.9895C86.6719 36.4562 85.5719 35.7475 84.7498 34.8636L86.0053 33.2093C86.7501 33.9603 87.685 34.5733 88.8101 35.0483C89.9551 35.546 91.1771 35.8346 92.476 35.9142C94.6053 36.0448 96.201 35.6403 97.2632 34.7009C98.324 33.7827 98.9184 32.2803 99.0463 30.1935L99.3028 26.0094L99.7984 23.1544L99.751 20.266L100.062 15.1876L102.234 15.3207L101.332 30.0451C101.154 32.941 100.311 35.0159 98.802 36.27C97.3131 37.5466 95.1846 38.1001 92.4165 37.9304ZM92.43 30.9101C90.833 30.8122 89.4166 30.3834 88.1808 29.6237C86.9463 28.8427 85.9942 27.8118 85.3247 26.5311C84.6764 25.2517 84.4012 23.8135 84.4991 22.2165C84.597 20.6195 85.0451 19.2364 85.8435 18.067C86.6645 16.8777 87.7346 15.9815 89.054 15.3784C90.3734 14.7753 91.8316 14.5227 93.4286 14.6206C94.9191 14.712 96.2417 15.103 97.3962 15.7936C98.5508 16.4842 99.4422 17.4579 100.071 18.7147C100.699 19.9715 100.959 21.4729 100.852 23.219C100.745 24.965 100.303 26.4234 99.5262 27.594C98.7491 28.7647 97.7448 29.6328 96.5132 30.1986C95.2816 30.7643 93.9206 31.0014 92.43 30.9101ZM92.777 28.9115C94.012 28.9872 95.1243 28.7989 96.1138 28.3466C97.1046 27.873 97.9049 27.1954 98.5147 26.3137C99.1257 25.4108 99.4685 24.3524 99.5429 23.1387C99.6173 21.925 99.4057 20.8433 98.9082 19.8938C98.4107 18.9442 97.6985 18.1846 96.7716 17.6148C95.8461 17.0237 94.7658 16.6903 93.5308 16.6146C92.317 16.5402 91.2041 16.7392 90.192 17.2115C89.2025 17.6638 88.4028 18.3308 87.7931 19.2124C87.2046 20.0954 86.8732 21.1438 86.7988 22.3575C86.7244 23.5712 86.9246 24.6629 87.3995 25.6324C87.897 26.5819 88.6086 27.3523 89.5341 27.9433C90.4823 28.5144 91.5633 28.8371 92.777 28.9115Z" fill="#5183B1"/>
        <path d="M113.859 33.1635C112.243 33.0267 110.818 32.542 109.582 31.7095C108.37 30.8575 107.445 29.7623 106.809 28.4238C106.175 27.0641 105.928 25.5553 106.069 23.8972C106.211 22.2179 106.708 20.772 107.56 19.5595C108.412 18.3471 109.506 17.4335 110.843 16.8188C112.18 16.204 113.666 15.9659 115.303 16.1045C116.961 16.2449 118.397 16.7305 119.612 17.5612C120.847 18.3938 121.772 19.4784 122.387 20.815C123.023 22.1534 123.27 23.6623 123.128 25.3416C122.987 26.9997 122.49 28.4456 121.636 29.6793C120.806 30.8935 119.71 31.8177 118.351 32.4519C116.993 33.0649 115.495 33.3021 113.859 33.1635ZM114.029 31.1547C115.24 31.2573 116.336 31.0824 117.317 30.6302C118.299 30.1567 119.097 29.4536 119.711 28.5207C120.349 27.5684 120.722 26.4439 120.832 25.1472C120.943 23.8293 120.764 22.658 120.294 21.6334C119.846 20.6105 119.176 19.7938 118.286 19.1832C117.397 18.5513 116.358 18.1849 115.168 18.0841C113.977 17.9833 112.891 18.1697 111.909 18.6432C110.928 19.0954 110.121 19.7871 109.485 20.7181C108.85 21.6491 108.476 22.7736 108.364 24.0916C108.255 25.3883 108.434 26.5596 108.902 27.6055C109.372 28.6301 110.051 29.4583 110.94 30.0902C111.83 30.7009 112.86 31.0557 114.029 31.1547Z" fill="#5183B1"/>
        <path d="M131.2 35.0566L127.171 17.1233L129.494 17.5861L133.164 34.208L132.065 33.9891L141.921 20.0628L144.118 20.5006L133.491 35.5131L131.2 35.0566Z" fill="#5183B1"/>
        <path d="M146.006 40.2327C144.679 39.3023 143.69 38.1667 143.04 36.826C142.421 35.4799 142.172 34.0686 142.295 32.5918C142.43 31.0976 142.976 29.6691 143.93 28.3064C144.898 26.9261 146.054 25.9261 147.4 25.3063C148.746 24.6865 150.151 24.4469 151.616 24.5874C153.08 24.7279 154.485 25.2694 155.831 26.2121C157.193 27.1669 158.191 28.3086 158.823 29.6372C159.472 30.978 159.727 32.3806 159.586 33.8451C159.463 35.3219 158.918 36.7503 157.951 38.1306C156.996 39.4933 155.84 40.4933 154.481 41.1306C153.153 41.7627 151.741 42.0111 150.247 41.8758C148.765 41.7231 147.352 41.1754 146.006 40.2327ZM147.163 38.5817C148.159 39.2795 149.194 39.6793 150.269 39.7812C151.356 39.8656 152.4 39.659 153.4 39.1613C154.429 38.6585 155.317 37.8742 156.064 36.8084C156.823 35.7252 157.257 34.6226 157.366 33.5007C157.492 32.3909 157.324 31.3484 156.861 30.3729C156.411 29.38 155.697 28.5408 154.718 27.8552C153.74 27.1697 152.707 26.7847 151.62 26.7003C150.545 26.5985 149.499 26.7902 148.482 27.2756C147.464 27.761 146.576 28.5453 145.817 29.6285C145.071 30.6942 144.637 31.7968 144.515 32.9363C144.407 34.0582 144.577 35.1157 145.028 36.1086C145.49 37.084 146.202 37.9084 147.163 38.5817Z" fill="#5183B1"/>
        <path d="M152.13 46.082L167.117 38.491L168.1 40.4322L164.018 42.4999L164.631 41.9386C165.984 41.7789 167.207 42.0445 168.298 42.7353C169.409 43.4164 170.335 44.4897 171.077 45.9551L169.107 46.9528C169.069 46.8767 169.03 46.8006 168.992 46.7244C168.972 46.6387 168.943 46.5577 168.904 46.4816C168.104 44.902 166.993 43.9108 165.569 43.5079C164.164 43.0954 162.577 43.3374 160.807 44.2338L153.156 48.1089L152.13 46.082Z" fill="#5183B1"/>
        <path d="M158.321 62.3583C157.896 60.7938 157.862 59.2885 158.22 57.8424C158.605 56.4113 159.317 55.1675 160.356 54.111C161.415 53.049 162.748 52.2995 164.354 51.8628C165.98 51.4204 167.509 51.3914 168.94 51.7759C170.371 52.1604 171.604 52.8751 172.64 53.9198C173.676 54.9645 174.41 56.2794 174.841 57.8645C175.278 59.4701 175.314 60.9857 174.95 62.4112C174.592 63.8573 173.89 65.0983 172.846 66.1342C171.806 67.1907 170.474 67.9401 168.848 68.3825C167.242 68.8192 165.713 68.8482 164.262 68.4693C162.836 68.1054 161.592 67.3935 160.53 66.3338C159.489 65.2685 158.752 63.9433 158.321 62.3583ZM160.266 61.8291C160.586 63.0024 161.126 63.972 161.887 64.7378C162.668 65.4979 163.603 66.0065 164.69 66.2636C165.803 66.5356 166.987 66.5008 168.243 66.1592C169.519 65.8121 170.558 65.2421 171.359 64.4493C172.166 63.677 172.704 62.7681 172.972 61.7223C173.261 60.671 173.248 59.5689 172.935 58.4161C172.621 57.2634 172.074 56.3069 171.292 55.5467C170.531 54.781 169.604 54.2593 168.512 53.9816C167.419 53.704 166.235 53.7388 164.959 54.086C163.703 54.4276 162.664 54.9975 161.842 55.796C161.041 56.5888 160.496 57.5108 160.207 58.5622C159.939 59.6079 159.958 60.6969 160.266 61.8291Z" fill="#5183B1"/>
        <path d="M162.409 79.5139L177.485 68.9987L177.935 71.3234L163.938 81.0105L163.725 79.9109L180.345 83.7641L180.771 85.9632L162.854 81.8072L162.409 79.5139Z" fill="#5183B1"/>
    </g>
    <defs>
        <filter id="filter0_d_1_791" x="79.5691" y="14.1038" width="105.202" height="83.0548" filterUnits="userSpaceOnUse" color-interpolation-filters="sRGB">
            <feFlood flood-opacity="0" result="BackgroundImageFix"/>
            <feColorMatrix in="SourceAlpha" type="matrix" values="0 0 0 0 0 0 0 0 0 0 0 0 0 0 0 0 0 0 127 0" result="hardAlpha"/>
            <feOffset dy="4"/>
            <feGaussianBlur stdDeviation="2"/>
            <feComposite in2="hardAlpha" operator="out"/>
            <feColorMatrix type="matrix" values="0 0 0 0 0 0 0 0 0 0 0 0 0 0 0 0 0 0 0.25 0"/>
            <feBlend mode="normal" in2="BackgroundImageFix" result="effect1_dropShadow_1_791"/>
            <feBlend mode="normal" in="SourceGraphic" in2="effect1_dropShadow_1_791" result="shape"/>
        </filter>
    </defs>
</svg>
